# xmcd
#
# Track frame offsets:
# 150
# 15876
# 27664
# 41037
# 52492
# 65765
# 76038
# 88190
# 98871
# 116899
# 135332
# 146326
# 158637
# 181818
# 198635
# 209471
# 222417
# 239812
# 247298
# 257816
# 271483
# 286073
# 304751
# 318750
# 337826
#
# Disc length: 4645 seconds
#
#
# Revision: 0
# Processed by: cddbd v1.5.1PL0 Copyright (c) Steve Scherf et al.
# Submitted via: FreeRIP 2.942 
#
DISCID=7a122319
DTITLE=Motorzinho dos Teclados - Um Show de Forró Ao Vivo
DYEAR=1900
DGENRE=Forró
TTITLE0=Forró do Bate Coxa
TTITLE1=Mexendo o Bumbum
TTITLE2=Mauricinho
TTITLE3=Belladona
TTITLE4=É Chamego Ou Chaveco?
TTITLE5=Escapadinha No Forró
TTITLE6=A Solteirona
TTITLE7=Revolta da Corrinha
TTITLE8=Jeito de Amar
TTITLE9=Coração
TTITLE10=A Dança da Bicicletinha
TTITLE11=Fique Amor
TTITLE12=Amor Sem Limite
TTITLE13=Ela Chorou de Amor
TTITLE14=Choro Por Você
TTITLE15=Amigo Descarado
TTITLE16=Só Quero Te Amar
TTITLE17=Dança da Bundinha
TTITLE18=Amor Que Não Volta
TTITLE19=Sorte Grande
TTITLE20=Treme Treme
TTITLE21=O Clone
TTITLE22=Ser Feliz
TTITLE23=Lamer
TTITLE24=Eis Meu Amor
EXTD=
EXTT0=
EXTT1=
EXTT2=
EXTT3=
EXTT4=
EXTT5=
EXTT6=
EXTT7=
EXTT8=
EXTT9=
EXTT10=
EXTT11=
EXTT12=
EXTT13=
EXTT14=
EXTT15=
EXTT16=
EXTT17=
EXTT18=
EXTT19=
EXTT20=
EXTT21=
EXTT22=
EXTT23=
EXTT24=
PLAYORDER=
